<svg xmlns="http://www.w3.org/2000/svg" viewBox="220 290 600 490" preserveAspectRatio="xMidYMid meet">
<g transform="translate(0,1081) scale(0.1,-0.1)" fill="#FFFFFF" stroke="none" fill-rule="evenodd">
<path d="M10 5410 z m4713 2061 c42 -11 101 -32 131 -46 60 -28 151 -105 161 -134 5 -18 26
-19 328 -24 233 -3 347 -9 414 -21 349 -61 596 -237 684 -486 59 -167 64 -342
12 -492 -35 -100 -81 -172 -162 -252 l-59 -59 56 -42 c83 -61 169 -160 207
-240 50 -103 68 -190 68 -325 -1 -222 -66 -398 -200 -540 -41 -44 -96 -95
-123 -115 -71 -52 -194 -110 -295 -140 -176 -51 -235 -55 -834 -55 -504 0
-556 2 -573 17 -17 15 -21 15 -57 -5 -109 -62 -207 -76 -390 -56 -75 8 -150
16 -168 19 -78 13 -130 99 -185 303 -29 108 -31 130 -32 284 -1 166 -1 167
-27 195 -74 79 -79 153 -19 302 56 141 66 158 100 176 38 20 100 19 128 -1 23
-16 25 -14 78 44 61 68 110 102 146 102 23 0 25 5 36 75 11 72 11 76 -13 111
-33 48 -32 76 5 354 35 258 71 441 135 690 25 96 49 193 53 215 5 22 13 49 19
60 51 93 207 129 376 86z m1803 -217 c43 -29 57 -100 29 -153 -8 -16 -31 -36
-52 -46 -33 -16 -41 -16 -77 -4 -46 16 -86 67 -86 108 0 38 36 90 73 106 35
16 78 11 113 -11z m388 -3293 c23 -10 55 -34 73 -54 31 -36 57 -102 47 -119
-3 -4 -36 -8 -74 -8 l-68 0 -19 37 c-29 60 -105 71 -137 21 -18 -30 5 -52 70
-67 32 -7 83 -20 113 -28 98 -26 146 -102 121 -192 -15 -56 -51 -95 -112 -121
-44 -19 -65 -22 -138 -18 -71 3 -95 9 -132 31 -50 29 -80 70 -96 130 l-10 37
79 0 c67 0 79 -2 79 -17 0 -9 10 -27 22 -40 17 -18 32 -23 73 -23 55 0 75 12
75 46 0 32 -18 42 -105 59 -140 26 -195 74 -195 167 0 89 55 153 155 179 43
11 131 2 179 -20z m-4001 -5 c44 -21 66 -50 77 -99 9 -43 -11 -105 -41 -128
l-21 -16 29 -21 c40 -28 57 -71 50 -128 -6 -57 -31 -92 -88 -124 -40 -22 -57
-25 -196 -28 l-153 -4 0 287 0 287 153 -4 c124 -3 159 -7 190 -22z m607 13
c116 -25 180 -139 136 -242 -7 -18 -33 -50 -56 -70 l-43 -36 62 -96 c33 -53
61 -100 61 -106 0 -5 -38 -9 -84 -9 l-84 0 -58 95 c-46 75 -63 95 -81 95 -22
0 -23 -3 -23 -95 l0 -95 -75 0 -75 0 0 285 0 285 135 0 c73 0 157 -5 185 -11z
m748 -56 l3 -63 -126 0 -125 0 0 -40 0 -40 110 0 110 0 0 -65 0 -65 -110 0
-110 0 0 -45 0 -45 125 0 125 0 0 -70 0 -70 -200 0 -200 0 0 285 0 285 198 -2
197 -3 3 -62z m333 -88 c19 -85 36 -155 40 -155 3 0 24 69 45 153 l40 152 77
3 76 3 10 -38 c51 -198 74 -283 77 -281 1 2 17 66 34 143 17 77 34 148 36 158
5 14 17 17 79 17 l73 0 -72 -282 -71 -283 -72 -3 c-61 -2 -73 0 -81 15 -5 10
-26 86 -47 170 -22 84 -41 151 -43 149 -2 -2 -23 -78 -46 -168 l-43 -163 -76
-3 c-43 -2 -77 -1 -77 2 0 3 -31 128 -70 279 -38 150 -70 276 -70 280 0 4 33
7 74 7 l73 0 34 -155z m1007 -32 c54 -144 72 -183 78 -168 5 11 36 94 69 185
l62 165 89 0 89 0 0 -280 0 -280 -67 -3 -67 -3 -3 158 -3 158 -39 -105 c-21
-58 -47 -129 -58 -158 l-20 -53 -61 3 -62 3 -55 150 -55 149 -5 -149 -5 -150
-65 0 -65 0 -3 283 -2 282 89 0 89 0 70 -187z m762 -98 l0 -285 -75 0 -75 0 0
285 0 285 75 0 75 0 0 -285z m1300 215 l0 -70 -85 0 -85 0 0 -215 0 -215 -75
0 -75 0 0 215 0 215 -85 0 -85 0 0 70 0 70 245 0 245 0 0 -70z
M4485 7395 c-98 -35 -100 -125 -3 -195 22 -17 39 -30 36 -30 -16 0
-86 35 -105 52 l-22 20 -10 -38 c-35 -133 -94 -382 -111 -472 -23 -124 -80
-539 -80 -582 0 -18 11 -42 28 -61 l28 -31 -21 -132 -20 -131 -39 3 -39 4 37
-33 c84 -73 130 -229 130 -444 -1 -77 -6 -166 -12 -198 -11 -56 -10 -61 13
-101 14 -24 25 -54 25 -69 0 -29 -102 -303 -120 -321 -8 -8 -19 -3 -40 21
l-29 33 -52 -55 c-32 -34 -66 -59 -92 -68 l-42 -14 128 -13 c174 -18 258 -10
344 31 75 36 158 112 191 175 27 49 27 36 2 -68 -11 -46 -20 -86 -20 -90 0
-12 1033 -9 1130 2 366 45 631 232 725 511 23 69 29 107 33 211 5 149 -6 225
-49 315 -56 119 -159 218 -296 287 -29 14 -53 28 -53 30 0 1 25 20 55 41 188
129 290 338 270 558 -23 268 -159 448 -420 556 -159 67 -213 73 -600 78 l-350
5 -84 -181 c-46 -100 -86 -179 -88 -178 -2 2 20 87 48 189 34 122 50 194 45
211 -29 118 -322 225 -471 172z
M5625 6612 c63 -29 93 -57 116 -107 35 -75 16
-179 -42 -232 -69 -63 -175 -82 -451 -83 l-188 0 0 226 0 225 258 -3 c243 -3
260 -4 307 -26z
M4596 6003 c-10 -34 -36 -208 -36 -246 0 -21 7 -51 15 -67
l15 -30 -64 43 c-53 34 -64 46 -59 62 4 11 16 64 28 119 20 94 23 99 55 117
44 23 53 23 46 2z
M5602 5639 c150 -32 231 -119 232 -249 1 -82 -31 -150 -92
-197 -78 -59 -117 -66 -414 -71 l-268 -4 0 266 0 266 245 0 c142 0 266 -5 297
-11z
M3971 5655 c-53 -48 -117 -175 -146 -290 -46 -181 -50 -413 -10 -551
19 -65 78 -134 114 -134 85 0 174 130 227 336 32 121 45 373 24 476 -34 180
-118 245 -209 163z
M3792 5658 c-22 -27 -92 -220 -92 -254 0 -45 28 -103 41 -83
5 8 9 21 9 30 0 27 49 169 81 237 17 34 27 67 24 72 -9 14 -51 12 -63 -2z
M6395 7225 c-56 -56 -18 -155 60 -155 48 0 95 45 95 90 0 76 -102
119 -155 65z m109 -27 c15 -24 0 -34 -22 -14 -28 25 -54 11 -50 -28 2 -23 8
-32 26 -34 13 -2 25 3 28 12 8 20 24 21 24 2 0 -37 -73 -53 -97 -20 -32 43 -1
107 49 102 17 -2 36 -11 42 -20z
M2700 3815 l0 -45 63 0 c68 0 87 10 87 47 0 30 -28 43 -94 43 l-56 0
0 -45z
M2700 3590 l0 -50 68 0 c54 0 72 4 85 18 43 47 6 82 -86 82 l-67 0 0
-50z
M3350 3790 l0 -60 65 0 c70 0 105 20 105 60 0 40 -35 60 -105 60
l-65 0 0 -60z"/>
</g>
</svg>
